<svg id="Слой_1" data-name="Слой 1" xmlns="http://www.w3.org/2000/svg" viewBox="0 0 121.53 53.87"><defs><style>.cls-1,.cls-3{fill:#fff;}.cls-2{fill:#45ae31;fill-rule:evenodd;}.cls-3{font-size:16px;font-family:Montserrat-Medium, Montserrat;font-weight:500;}.cls-4{letter-spacing:0em;}.cls-5{letter-spacing:-0.01em;}.cls-6{letter-spacing:-0.01em;}</style></defs><path class="cls-1" d="M5.94,13v18.5H2.77V15Zm14.64,0A6.92,6.92,0,0,1,25.89,15a8.08,8.08,0,0,1,2,5.9V31.51H24.7V21.34a5.84,5.84,0,0,0-1.23-4A4.49,4.49,0,0,0,20,16a5.31,5.31,0,0,0-4.06,1.57,6.33,6.33,0,0,0-1.49,4.54v9.44H11.25V13.17h3v2.77a6.45,6.45,0,0,1,2.58-2.2A8.89,8.89,0,0,1,20.58,13ZM42.19,30.45a4.62,4.62,0,0,1-1.72.95,7.51,7.51,0,0,1-2.11.34,5.41,5.41,0,0,1-4.1-1.52A5.81,5.81,0,0,1,32.81,26V9.87l3.17-2v5.29h5v2.72H36v9.94a3.39,3.39,0,0,0,.7,2.29,2.63,2.63,0,0,0,2,.81,3.7,3.7,0,0,0,2.47-.88Zm19.25-8a6.37,6.37,0,0,1-.09,1H47.14a5.89,5.89,0,0,0,2,3.87,6.5,6.5,0,0,0,4.32,1.48,6.36,6.36,0,0,0,5-2.21l1.76,2.14a7.9,7.9,0,0,1-3,2.24,10.32,10.32,0,0,1-3.94.76,9.9,9.9,0,0,1-4.93-1.22,8.14,8.14,0,0,1-3.33-3.35A10,10,0,0,1,44,22.33a10.22,10.22,0,0,1,1.15-4.8A8.38,8.38,0,0,1,52.76,13a8.26,8.26,0,0,1,7.58,4.55A10.79,10.79,0,0,1,61.44,22.44ZM52.76,15.8A5.34,5.34,0,0,0,49,17.25a6.07,6.07,0,0,0-1.81,3.81H58.4a5.94,5.94,0,0,0-1.83-3.79A5.23,5.23,0,0,0,52.76,15.8ZM75.18,13A7,7,0,0,1,80.49,15a8.16,8.16,0,0,1,2,5.9V31.51H79.28V21.34a5.79,5.79,0,0,0-1.24-4A4.48,4.48,0,0,0,74.54,16a5.32,5.32,0,0,0-4.05,1.57A6.42,6.42,0,0,0,69,22.07v9.44H65.82V13.17h3v2.77a6.37,6.37,0,0,1,2.6-2.2A8.8,8.8,0,0,1,75.18,13ZM93.35,31.74a14.47,14.47,0,0,1-4.12-.62,8.87,8.87,0,0,1-3.1-1.55l1.32-2.63a9.22,9.22,0,0,0,2.79,1.39,11.29,11.29,0,0,0,3.35.5c2.78,0,4.14-.83,4.14-2.49a1.57,1.57,0,0,0-.55-1.29,3.31,3.31,0,0,0-1.41-.72,20,20,0,0,0-2.38-.5A21.9,21.9,0,0,1,89.94,23a4.76,4.76,0,0,1-2.29-1.52,4.31,4.31,0,0,1-1-3,4.75,4.75,0,0,1,2-4A8.48,8.48,0,0,1,94,13a15.22,15.22,0,0,1,3.52.44,9.42,9.42,0,0,1,2.86,1.22L99,17.3a8.63,8.63,0,0,0-5.07-1.48,5.63,5.63,0,0,0-3.08.72,2.11,2.11,0,0,0-1,1.82,1.83,1.83,0,0,0,.59,1.43,4.24,4.24,0,0,0,1.45.76c.6.16,1.41.35,2.47.55a27.17,27.17,0,0,1,3.41.81A4.85,4.85,0,0,1,100,23.39a4.05,4.05,0,0,1,1,2.88,4.68,4.68,0,0,1-2,4A9.29,9.29,0,0,1,93.35,31.74ZM111.28,13a7.62,7.62,0,0,1,5.55,1.89,7.46,7.46,0,0,1,1.94,5.57V31.51h-3V29.09a5.37,5.37,0,0,1-2.27,2,8.09,8.09,0,0,1-3.5.69,7,7,0,0,1-4.71-1.52,4.85,4.85,0,0,1-1.74-3.9,5,5,0,0,1,1.65-3.9c1.14-1,2.93-1.48,5.37-1.48h5V20.3A4.35,4.35,0,0,0,114.4,17a4.86,4.86,0,0,0-3.5-1.13,9.09,9.09,0,0,0-3,.53,8,8,0,0,0-2.51,1.43L104,15.34a9.35,9.35,0,0,1,3.24-1.76A14,14,0,0,1,111.28,13Zm-.75,16.18a5.61,5.61,0,0,0,3.15-.86,4.68,4.68,0,0,0,1.91-2.4V23.34H110.7c-2.68,0-4,.95-4,2.84a2.61,2.61,0,0,0,1,2.19A4.6,4.6,0,0,0,110.53,29.16Z"/><path class="cls-2" d="M8.34,5.16,5.54,6.88,2.77,8.61V1.74L5.54,3.46Z"/><text class="cls-3" transform="translate(12.08 49.61)"><tspan class="cls-4">m</tspan><tspan x="16.96" y="0">e</tspan><tspan class="cls-5" x="26.75" y="0">r</tspan><tspan class="cls-6" x="33.12" y="0">c</tspan><tspan x="42.14" y="0">h s</tspan><tspan class="cls-4" x="65.36" y="0">h</tspan><tspan x="76.3" y="0">op</tspan></text></svg>