<svg id="Слой_1" data-name="Слой 1" xmlns="http://www.w3.org/2000/svg" viewBox="0 0 53.65 59.21"><defs><style>.cls-1{fill:#457767;}.cls-1,.cls-2,.cls-3{fill-rule:evenodd;}.cls-2{fill:#45ae31;}.cls-3{fill:#a3ff82;}</style></defs><path class="cls-1" d="M49.59,23.37a7.08,7.08,0,0,1,0,12.07L35.45,44.17,12.67,58.32A4.34,4.34,0,0,1,10.4,59H5A4.31,4.31,0,0,1,.66,54.66V4.3A4.31,4.31,0,0,1,5,0H10.4a4.25,4.25,0,0,1,2.27.65L35.45,14.8Z"/><path class="cls-2" d="M45.06,27.28a2.47,2.47,0,0,1,0,4.21L24.48,44.17,4.1,56.83A2.25,2.25,0,0,1,.66,54.92V3.1A1.73,1.73,0,0,1,3.3,1.64L24.48,14.8Z"/><path class="cls-3" d="M32.33,29.43,20,37,7.79,44.6V14.36L20,22Z"/></svg>