<svg id="Слой_1" xmlns="http://www.w3.org/2000/svg" viewBox="0 0 121.53 53.87">
    <data-name>Слой 1</data-name>
    <defs><style>.cls-1{fill:#FFFFFFFF;}.cls-2{fill:#45ae31;fill-rule:evenodd;}</style></defs><path class="cls-1"
                                                                                               d="M7.11,12.74V31.25H3.94V14.7Zm14.64,0a7,7,0,0,1,5.31,2,8.1,8.1,0,0,1,2,5.91V31.25H25.87V21.07a5.81,5.81,0,0,0-1.23-4,4.5,4.5,0,0,0-3.5-1.37,5.35,5.35,0,0,0-4.06,1.57,6.37,6.37,0,0,0-1.49,4.55v9.44H12.41V12.9h3v2.77A6.5,6.5,0,0,1,18,13.48,8.74,8.74,0,0,1,21.75,12.72ZM43.36,30.19a4.6,4.6,0,0,1-1.72.94,7.18,7.18,0,0,1-2.11.35A5.38,5.38,0,0,1,35.43,30,5.8,5.8,0,0,1,34,25.71V9.6l3.17-2V12.9h5v2.73h-5v9.94a3.38,3.38,0,0,0,.7,2.28,2.58,2.58,0,0,0,2,.81,3.74,3.74,0,0,0,2.47-.87Zm19.25-8a6.27,6.27,0,0,1-.09,1H48.31a5.87,5.87,0,0,0,2,3.88,6.5,6.5,0,0,0,4.32,1.48,6.36,6.36,0,0,0,5-2.22l1.76,2.15a7.9,7.9,0,0,1-3,2.24,10.32,10.32,0,0,1-3.94.76,9.91,9.91,0,0,1-4.93-1.23,8.12,8.12,0,0,1-3.33-3.34,10.08,10.08,0,0,1-1.17-4.85,10.25,10.25,0,0,1,1.15-4.8,8.37,8.37,0,0,1,7.64-4.54,8.28,8.28,0,0,1,7.58,4.54A10.8,10.8,0,0,1,62.61,22.18Zm-8.68-6.65A5.33,5.33,0,0,0,50.12,17a6.07,6.07,0,0,0-1.81,3.8H59.57A5.94,5.94,0,0,0,57.74,17,5.23,5.23,0,0,0,53.93,15.53Zm22.42-2.81a7,7,0,0,1,5.31,2,8.18,8.18,0,0,1,2,5.91V31.25H80.45V21.07a5.76,5.76,0,0,0-1.24-4,4.48,4.48,0,0,0-3.5-1.37,5.35,5.35,0,0,0-4,1.57,6.46,6.46,0,0,0-1.5,4.55v9.44H67V12.9h3v2.77a6.43,6.43,0,0,1,2.6-2.19A8.65,8.65,0,0,1,76.35,12.72ZM94.52,31.48a14.13,14.13,0,0,1-4.12-.63,8.78,8.78,0,0,1-3.1-1.54l1.32-2.63a9.21,9.21,0,0,0,2.79,1.38,11,11,0,0,0,3.35.51c2.78,0,4.14-.83,4.14-2.49a1.57,1.57,0,0,0-.55-1.29,3.2,3.2,0,0,0-1.41-.72,19.67,19.67,0,0,0-2.38-.51,22,22,0,0,1-3.45-.8,4.71,4.71,0,0,1-2.29-1.53,4.28,4.28,0,0,1-1-3,4.75,4.75,0,0,1,2-4,8.54,8.54,0,0,1,5.31-1.52,15.22,15.22,0,0,1,3.52.44,9.18,9.18,0,0,1,2.86,1.22L100.18,17a8.7,8.7,0,0,0-5.07-1.47,5.73,5.73,0,0,0-3.08.71,2.11,2.11,0,0,0-1,1.82,1.85,1.85,0,0,0,.59,1.44,4.42,4.42,0,0,0,1.45.76c.6.16,1.41.34,2.47.55a25.51,25.51,0,0,1,3.41.81,4.76,4.76,0,0,1,2.23,1.47A4.08,4.08,0,0,1,102.1,26a4.68,4.68,0,0,1-2,4A9.29,9.29,0,0,1,94.52,31.48Zm17.93-18.76A7.58,7.58,0,0,1,118,14.61a7.42,7.42,0,0,1,1.94,5.56V31.25h-3V28.82a5.39,5.39,0,0,1-2.27,2,8.09,8.09,0,0,1-3.5.69A7,7,0,0,1,106.46,30a4.83,4.83,0,0,1-1.74-3.89,5,5,0,0,1,1.65-3.9c1.14-1,2.93-1.48,5.37-1.48h5V20a4.35,4.35,0,0,0-1.19-3.3,4.86,4.86,0,0,0-3.5-1.13,9.35,9.35,0,0,0-3,.53,8,8,0,0,0-2.51,1.43l-1.32-2.49a9.33,9.33,0,0,1,3.24-1.75A14,14,0,0,1,112.45,12.72Zm-.75,16.17a5.61,5.61,0,0,0,3.15-.85,4.68,4.68,0,0,0,1.91-2.4V23.08h-4.89c-2.68,0-4,.94-4,2.84a2.61,2.61,0,0,0,1,2.19A4.6,4.6,0,0,0,111.7,28.89Z">
</path><path class="cls-2" d="M70.83,44.51,68,46.23,65.26,48V41.09L68,42.81Z">
</path><path class="cls-1" d="M20.84,41.72a3.72,3.72,0,0,1,.94,2.75v4.88H20.24v-4.7a2.67,2.67,0,0,0-.57-1.86,2.07,2.07,0,0,0-1.62-.62,2.46,2.46,0,0,0-1.86.72A2.94,2.94,0,0,0,15.5,45v4.37H14v-4.7a2.67,2.67,0,0,0-.57-1.86,2.07,2.07,0,0,0-1.62-.62,2.46,2.46,0,0,0-1.86.72A2.94,2.94,0,0,0,9.23,45v4.37H7.7V40.87H9.17v1.26a3,3,0,0,1,1.21-1,4.09,4.09,0,0,1,1.72-.34,3.74,3.74,0,0,1,1.76.4A2.83,2.83,0,0,1,15,42.36a3.15,3.15,0,0,1,1.34-1.15,4.3,4.3,0,0,1,1.92-.42A3.44,3.44,0,0,1,20.84,41.72Z"/><path class="cls-1" d="M32.29,45.62H25.41a2.62,2.62,0,0,0,1,1.8,3.5,3.5,0,0,0,4.54-.34l.84,1a3.61,3.61,0,0,1-1.43,1,4.89,4.89,0,0,1-1.91.36,5,5,0,0,1-2.38-.56,3.86,3.86,0,0,1-1.61-1.54,4.72,4.72,0,0,1,0-4.46,4,4,0,0,1,1.52-1.55,4.34,4.34,0,0,1,2.19-.55,4.18,4.18,0,0,1,2.16.55,3.83,3.83,0,0,1,1.49,1.55,4.67,4.67,0,0,1,.54,2.27A4.54,4.54,0,0,1,32.29,45.62Zm-6-2.86a2.66,2.66,0,0,0-.87,1.76h5.44A2.71,2.71,0,0,0,30,42.77a2.59,2.59,0,0,0-1.84-.68A2.63,2.63,0,0,0,26.28,42.76Z"/><path class="cls-1" d="M37.1,41.17A4.42,4.42,0,0,1,39,40.79v1.49l-.36,0a2.58,2.58,0,0,0-2,.75A3,3,0,0,0,36,45.13v4.22H34.45V40.87h1.47v1.42A2.67,2.67,0,0,1,37.1,41.17Z"/><path class="cls-1" d="M42.2,48.89a4.09,4.09,0,0,1-1.59-1.55,4.58,4.58,0,0,1,0-4.46,4,4,0,0,1,1.59-1.54,4.75,4.75,0,0,1,2.31-.55,4.46,4.46,0,0,1,2.06.46A3.31,3.31,0,0,1,48,42.6l-1.17.75a2.6,2.6,0,0,0-1-.91,2.92,2.92,0,0,0-1.32-.31A3.08,3.08,0,0,0,43,42.5a2.69,2.69,0,0,0-1,1,3.16,3.16,0,0,0-.38,1.56A3.24,3.24,0,0,0,42,46.69a2.6,2.6,0,0,0,1,1,3,3,0,0,0,1.49.37,2.91,2.91,0,0,0,1.32-.3,2.68,2.68,0,0,0,1-.91l1.17.73A3.31,3.31,0,0,1,46.57,49a4.35,4.35,0,0,1-2.06.48A4.76,4.76,0,0,1,42.2,48.89Z"/><path class="cls-1" d="M56.93,41.73a3.66,3.66,0,0,1,1,2.74v4.88H56.35v-4.7a2.63,2.63,0,0,0-.59-1.86,2.22,2.22,0,0,0-1.7-.62,2.67,2.67,0,0,0-2,.72A2.87,2.87,0,0,0,51.37,45v4.37H49.84V37.48h1.53v4.59a3.08,3.08,0,0,1,1.26-.94,4.25,4.25,0,0,1,1.74-.34A3.47,3.47,0,0,1,56.93,41.73Z"/><path class="cls-1" d="M78.53,49.17a4.37,4.37,0,0,1-1.5-.72l.64-1.21a4.77,4.77,0,0,0,1.36.64,5.58,5.58,0,0,0,1.62.24c1.34,0,2-.39,2-1.15a.75.75,0,0,0-.27-.61,1.73,1.73,0,0,0-.68-.33c-.27-.07-.66-.15-1.16-.23a11.59,11.59,0,0,1-1.67-.37,2.6,2.6,0,0,1-1.11-.7,2,2,0,0,1-.47-1.4,2.17,2.17,0,0,1,1-1.84,4.27,4.27,0,0,1,2.58-.7,7,7,0,0,1,1.69.21,4.54,4.54,0,0,1,1.4.56l-.66,1.21a4.47,4.47,0,0,0-2.45-.67,2.89,2.89,0,0,0-1.49.32,1,1,0,0,0-.51.85.82.82,0,0,0,.29.66,1.89,1.89,0,0,0,.71.35c.29.07.68.16,1.19.25a13.64,13.64,0,0,1,1.66.38,2.46,2.46,0,0,1,1.08.68,1.89,1.89,0,0,1,.45,1.34,2.13,2.13,0,0,1-1,1.84,4.66,4.66,0,0,1-2.68.68A7.37,7.37,0,0,1,78.53,49.17Z"/><path class="cls-1" d="M93.21,41.73a3.66,3.66,0,0,1,1,2.74v4.88H92.63v-4.7A2.63,2.63,0,0,0,92,42.79a2.22,2.22,0,0,0-1.7-.62,2.67,2.67,0,0,0-2,.72A2.87,2.87,0,0,0,87.65,45v4.37H86.12V37.48h1.53v4.59a3.08,3.08,0,0,1,1.26-.94,4.25,4.25,0,0,1,1.74-.34A3.47,3.47,0,0,1,93.21,41.73Z"/><path class="cls-1" d="M98.42,48.89a4,4,0,0,1-1.57-1.55,4.65,4.65,0,0,1,0-4.46,3.94,3.94,0,0,1,1.57-1.54,5,5,0,0,1,4.54,0,4.07,4.07,0,0,1,1.57,1.54,4.72,4.72,0,0,1,0,4.46A4.17,4.17,0,0,1,103,48.89a4.88,4.88,0,0,1-4.54,0Zm3.74-1.16a2.65,2.65,0,0,0,1-1.06,3.47,3.47,0,0,0,0-3.12,2.62,2.62,0,0,0-1-1,3.09,3.09,0,0,0-2.93,0,2.81,2.81,0,0,0-1,1,3.47,3.47,0,0,0,0,3.12,2.74,2.74,0,0,0,2.49,1.43A2.87,2.87,0,0,0,102.16,47.73Z"/><path class="cls-1" d="M113.93,41.33a3.9,3.9,0,0,1,1.52,1.52,4.84,4.84,0,0,1,0,4.52,3.79,3.79,0,0,1-1.52,1.53,4.42,4.42,0,0,1-2.21.55,3.82,3.82,0,0,1-1.67-.36,3.37,3.37,0,0,1-1.29-1v4.38h-1.54V40.87h1.47v1.34a3.27,3.27,0,0,1,1.3-1.06,4.09,4.09,0,0,1,1.73-.36A4.52,4.52,0,0,1,113.93,41.33Zm-.88,6.4a2.69,2.69,0,0,0,1-1.06,3.47,3.47,0,0,0,0-3.12,2.67,2.67,0,0,0-1-1,3,3,0,0,0-1.46-.37,2.85,2.85,0,0,0-1.45.38,2.71,2.71,0,0,0-1,1.05,3.12,3.12,0,0,0-.38,1.55,3.16,3.16,0,0,0,.37,1.56,2.67,2.67,0,0,0,1,1.06,2.91,2.91,0,0,0,1.46.37A2.86,2.86,0,0,0,113.05,47.73Z"/><path class="cls-2" d="M9.51,4.9,6.71,6.62,3.94,8.34V1.48L6.71,3.2Z"/></svg>